<svg version="1" xmlns="http://www.w3.org/2000/svg" width="1333.333" height="1333.333" viewBox="0 0 1000.000000 1000.000000"><path d="M561.5 110.9c-7 1.7-10 5.1-17.5 20.1-19.5 38.8-34.2 104-47.5 211.4-3.9 30.8-4.1 35-2.2 34.4 1.5-.5 5.3-8.2 19-38.8 37.8-84.8 59.3-142.7 67.2-180.5 3.5-16.5 4-35.5 1.2-39.8-3.2-5-13.4-8.4-20.2-6.8z"/><path d="M550.3 375.4c-12.2 2-26.8 7.1-41 14.2-9.4 4.8-12.9 6.1-13.9 5.3-.8-.6-1.4-3.8-1.6-7.7-.2-3.9-.8-6.7-1.5-6.9-1.7-.6-5.6 6.8-9.3 17.2-1.7 4.9-4.7 13-6.6 17.8-2 4.9-7.4 19.9-12 33.4-20.6 60-33 87.4-52.9 117.3-11.5 17.3-19.9 27.5-33.9 41.5-28.5 28.4-57.7 45.3-95.6 55.4-54.3 14.4-124.4 10.7-190.7-10.1l-13.2-4.1-.8-6.6c-1.6-12.8-.8-40.6 1.6-54.5 9.3-55.3 37.8-118.7 86.3-192.1 5.7-8.7 9.8-15.7 9.6-16.9-.4-2.7-3.4-4.4-5.5-3-5.1 3-45.9 60.8-63.5 89.9C53.9 551.1 32.9 626.2 44.6 684c9.8 48.3 42.1 86.1 95.9 112.5 78.5 38.5 148.6 35.8 207-8 17.2-12.9 39.4-36.5 55-58.5 15.9-22.4 36.5-61.6 49.3-93.5 18-45 35-104.3 45.3-158.6l3.3-17.6 5.2 25.7c25.5 127.4 68.7 225.5 123.6 281.1 27.7 28 58.6 45.7 92.6 53 12.5 2.6 41.8 3.7 55.9 2 54-6.6 114.8-36.4 145-71.2 17.6-20.2 28.6-42.7 34-69.4 2.5-12.9 2.5-48.6 0-64-10.5-62.1-43.9-131.8-101.5-211.5-15.2-21-23.2-31-24.7-31-5.8 0-5.9 4.3-.1 12.4 2.3 3.3 9.1 13.7 15 23 36.8 57.8 62.5 113.8 73 158.6 4.9 21 6.1 31.3 6 52-.1 20.3-1 27.4-5.5 42.7l-2.1 7.1-8.7 1.6c-4.7.8-13.3 2.1-19.1 2.8-13.7 1.7-55.7 1.7-67.5 0-54.4-7.8-90.7-27.7-114.5-62.7-11-16.2-17.2-32.3-24.4-63-12-50.8-22.4-82.9-35.8-110.2-8.9-18.3-16.6-29.3-28.7-41.4-9.3-9.2-11.8-11.2-20.1-15.2-5.2-2.6-12.2-5.4-15.4-6.2-8.6-2.2-22.8-2.7-32.3-1.1zm13.2 52.1c12.4 2.1 22 12.8 28.4 32 5.9 17.7 8.8 40 12.1 93.5 4.8 77 9.3 107.6 20.5 140 8.8 25.2 23.3 46.9 40.5 60.5l3.5 2.7-4-2.2c-16.7-9.6-38.3-29.8-53.6-50.2-33.4-44.6-61.2-110.1-94.4-221.8-4.9-16.2-9.3-30.1-9.8-30.8-.7-.9-2.2-1.1-4.2-.8-8 1.5-3.1-2.4 15-12 11.1-5.9 22.7-10 31.3-11.3 5.7-.9 7.1-.8 14.7.4z"/></svg>